<svg xmlns="http://www.w3.org/2000/svg" viewBox="0 0 169.97 83.24"><defs><style>.cls-1,.cls-2{fill:#f3cc63;stroke:#b93d00;stroke-miterlimit:10;}.cls-2{font-size:45px;font-family:KeeponTruckin, Keep on Truckin;}</style></defs><g id="Layer_2" data-name="Layer 2"><g id="text"><path class="cls-1" d="M25.21,22.91q3.11,0,3.11-3c0-.66-.7-1.58-2.07-2.76-2.08-1.81-3.32-3-3.74-3.43a7,7,0,0,1-2.07-4.61,7.62,7.62,0,0,1,3.29-6.51A11.85,11.85,0,0,1,30.88.5,20.71,20.71,0,0,1,34.77,1a21.81,21.81,0,0,0,3.94.52q2.43,0,2.43,5.58c0,2.13-.84,3.19-2.52,3.19-1.17,0-2.29-.86-3.35-2.59s-2.1-2.58-3.08-2.58c-2.2,0-3.29.79-3.29,2.39q0,1.4,3.69,3.16a31.68,31.68,0,0,1,6.79,3.92,10.4,10.4,0,0,1,3.69,8.22,12.06,12.06,0,0,1-12.46,12.5,14.17,14.17,0,0,1-9-2.71,9.9,9.9,0,0,1-3.83-8.35c0-1.81.93-2.71,2.79-2.71a3.29,3.29,0,0,1,1.87.68A4.83,4.83,0,0,0,25.21,22.91Z"/><path class="cls-1" d="M58,19c.77,4.68,1.45,7.41,2,8.19.39.42.79.87,1.22,1.35A2.23,2.23,0,0,1,61.88,30c0,1.86-.3,3.13-.9,3.82a5.12,5.12,0,0,1-3.46,1.26,13.45,13.45,0,0,1-3.47.36,38.07,38.07,0,0,1-4.9-.36c-2-.21-3.41-.66-4.12-1.35A4.67,4.67,0,0,1,44,30.29a2.26,2.26,0,0,1,.8-1.48A8.82,8.82,0,0,0,46,27.5q1.3-2.61,2.61-14.35v-3c0-1.8-.35-3-1.13-3.65-.27-.15-.64-.37-1.12-.68a2,2,0,0,1-.54-1.52c0-1.23.78-2.15,2.34-2.75A12.48,12.48,0,0,1,52.93.86h.63a9.2,9.2,0,0,1,1,0c.19,0,.93-.09,2.25-.19.91-.06,1.82-.07,2.75,0Q70,1,70,9.54c0,3.22-.81,5.45-2.43,6.71a10.09,10.09,0,0,1-5.08,1.6C60.1,18.1,58.61,18.49,58,19ZM57.75,5.36c-.76,0-1.13.51-1.13,1.53,0,2.13,0,3.53.09,4.19,0,.36,0,.71.07,1.08a.9.9,0,0,0,.56.81,2.11,2.11,0,0,0,.5.09,2.66,2.66,0,0,0,2.33-1.35A5.06,5.06,0,0,0,60.94,9C60.94,6.56,59.87,5.36,57.75,5.36Z"/><path class="cls-1" d="M74.89,12q0-4.54-1.22-5.49c-.27-.15-.64-.37-1.12-.68A2,2,0,0,1,72,4.33c0-1.23.78-2.15,2.34-2.75A12.48,12.48,0,0,1,79.12.86q4,0,5.63,1A2.35,2.35,0,0,1,86.14,4a1.7,1.7,0,0,1-.43,1.3c-.28.27-.58.53-.87.77a2.1,2.1,0,0,0-.68,1,16.87,16.87,0,0,0-.81,6v.23q.41,3.87,1.26,8.14c.6,3.21,1.12,5.12,1.58,5.72l1.23,1.35A2.15,2.15,0,0,1,88.08,30c0,2.46-.64,4-1.89,4.54-1,.45-3.53.68-7.7.68-3.36,0-5.6-.34-6.7-1s-1.67-2-1.67-3.89A2.17,2.17,0,0,1,71,28.81a6.65,6.65,0,0,0,1.17-1.31A31.73,31.73,0,0,0,73.67,21Q74.48,16.25,74.89,12Z"/><path class="cls-1" d="M103.33,19.49a19.06,19.06,0,0,0,.83,4.12,14.6,14.6,0,0,0,1.31,3.62c.31.42.65.84,1,1.26a3.21,3.21,0,0,1,.81,1.49,11,11,0,0,1,.13,1.62A2.93,2.93,0,0,1,106,34.39a10.89,10.89,0,0,1-4.18.76q-1.39.18-6.08.18A10.33,10.33,0,0,1,92,34.61,3.64,3.64,0,0,1,89.83,33a3.24,3.24,0,0,1-.5-1.8v-.86a1.83,1.83,0,0,1,.59-1.21l1-1a78.1,78.1,0,0,0,1.94-9.54q.49-3.56.67-6.48.27-4.27-1.21-5.49c-.27-.15-.65-.37-1.13-.68a2,2,0,0,1-.54-1.52c0-1.23.78-2.15,2.34-2.75A12.29,12.29,0,0,1,97.79.86c3.27.06,5.37.53,6.3,1.39q2.11,1.41,3.83,6.67,1.89,5.67,3.69,7.42a.93.93,0,0,0,1,.22,3.08,3.08,0,0,0,.54-2,13.48,13.48,0,0,0-.14-1.52v-.23l0-.09c-.09-.72-.2-1.49-.32-2.29a7.83,7.83,0,0,0-2.47-3.92c-.27-.15-.65-.37-1.13-.68a2.14,2.14,0,0,1-.49-1.52c0-1.23.78-2.15,2.34-2.75a12.29,12.29,0,0,1,4.77-.72,13,13,0,0,1,5.62,1A2.34,2.34,0,0,1,122.63,4a1.78,1.78,0,0,1-.4,1.3,10.49,10.49,0,0,1-.86.77,2.49,2.49,0,0,0-.72,1c-.36.63-.72,1.28-1.08,1.93a8.48,8.48,0,0,0-.81,3.74v.59a38.21,38.21,0,0,0,1.4,7.46,32.41,32.41,0,0,1,1.21,7.43,13.78,13.78,0,0,1-.58,4.86q-.95,2.12-3.92,2.12-3.28,0-5.94-4.28-.68-1.12-3.69-7.92-1.89-4.28-3.42-4.27C103.49,18.73,103.33,19,103.33,19.49Z"/><path class="cls-1" d="M130.64,22.91q3.11,0,3.11-3,0-1-2.07-2.76-3.1-2.72-3.74-3.43a7,7,0,0,1-2.07-4.61,7.65,7.65,0,0,1,3.29-6.51A11.87,11.87,0,0,1,136.31.5a20.89,20.89,0,0,1,3.9.52,21.61,21.61,0,0,0,3.93.52q2.43,0,2.43,5.58c0,2.13-.84,3.19-2.52,3.19-1.17,0-2.28-.86-3.35-2.59s-2.09-2.58-3.08-2.58c-2.19,0-3.29.79-3.29,2.39q0,1.4,3.69,3.16a31.82,31.82,0,0,1,6.8,3.92,10.4,10.4,0,0,1,3.69,8.22A12.06,12.06,0,0,1,136,35.33a14.17,14.17,0,0,1-9-2.71,9.89,9.89,0,0,1-3.82-8.35c0-1.81.93-2.71,2.79-2.71a3.31,3.31,0,0,1,1.87.68A4.77,4.77,0,0,0,130.64,22.91Z"/><text class="cls-2" transform="translate(1.32 72.98)">Records</text></g></g></svg>